HIERARCHY
ROOT Hips
{
	OFFSET 0.00000 0.00000 0.00000
	CHANNELS 6 Xposition Yposition Zposition Zrotation Yrotation Xrotation 
	JOINT LHipJoint
	{
		OFFSET 0 0 0
		CHANNELS 3 Zrotation Yrotation Xrotation
		JOINT LeftHip
		{
			OFFSET 1.39187 -1.60231 0.69152
			CHANNELS 3 Zrotation Yrotation Xrotation
			JOINT LeftKnee
			{
				OFFSET 2.43314 -6.68499 0.00000
				CHANNELS 3 Zrotation Yrotation Xrotation
				JOINT LeftAnkle
				{
					OFFSET 2.32059 -6.37578 0.00000
					CHANNELS 3 Zrotation Yrotation Xrotation
					JOINT LeftToe
					{
						OFFSET 0.23021 -0.63250 1.71305
						CHANNELS 3 Zrotation Yrotation Xrotation
						End Site
						{
							OFFSET 0.00000 -0.00000 0.91647
						}
					}
				}
			}
		}
	}
	JOINT RHipJoint
	{
		OFFSET 0 0 0
		CHANNELS 3 Zrotation Yrotation Xrotation
		JOINT RightHip
		{
			OFFSET -1.19407 -1.60231 0.69152
			CHANNELS 3 Zrotation Yrotation Xrotation
			JOINT RightKnee
			{
				OFFSET -2.44411 -6.71513 0.00000
				CHANNELS 3 Zrotation Yrotation Xrotation
				JOINT RightAnkle
				{
					OFFSET -2.31924 -6.37207 0.00000
					CHANNELS 3 Zrotation Yrotation Xrotation
					JOINT RightToe
					{
						OFFSET -0.19473 -0.53502 1.87724
						CHANNELS 3 Zrotation Yrotation Xrotation
						End Site
						{
							OFFSET -0.00000 -0.00000 0.98293
						}
					}
				}
			}
		}
	}
	JOINT lowerback
	{
		OFFSET 0 0 0
		CHANNELS 3 Zrotation Yrotation Xrotation
		JOINT Chest
		{
			OFFSET -0.01120 1.87307 0.09613
			CHANNELS 3 Zrotation Yrotation Xrotation
			JOINT Chest2
			{
				OFFSET 0.01099 1.87818 0.04834
				CHANNELS 3 Zrotation Yrotation Xrotation
				JOINT lowerneck
				{
					OFFSET 0 0 0
					CHANNELS 3 Zrotation Yrotation Xrotation
					JOINT Neck
					{
						OFFSET 0.01702 1.40324 -0.12579
						CHANNELS 3 Zrotation Yrotation Xrotation
						JOINT Head
						{
							OFFSET -0.04239 1.38587 -0.01614
							CHANNELS 3 Zrotation Yrotation Xrotation
							End Site
							{
								OFFSET -0.02510 1.47031 -0.00154
							}
						}
					}
				}
				JOINT LeftCollar
				{
					OFFSET 0 0 0
					CHANNELS 3 Zrotation Yrotation Xrotation
					JOINT LeftShoulder
					{
						OFFSET 2.95699 0.62343 0.11653
CHANNELS 3 Zrotation Xrotation Yrotation
						JOINT LeftElbow
						{
OFFSET 0 -4.683820 -0.000000
CHANNELS 3 Zrotation Xrotation Yrotation
							JOINT LeftWrist
							{
OFFSET 0 -2.981240 -0.000000
CHANNELS 3 Zrotation Xrotation Yrotation
								JOINT lhand
								{
									OFFSET 0 0 0
CHANNELS 3 Zrotation Xrotation Yrotation
									JOINT LFingers
									{
OFFSET 0 -0.707590 0.000000
CHANNELS 3 Zrotation Xrotation Yrotation
										End Site
										{
OFFSET 0 -0.570480 0.000000
										}
									}
								}
								JOINT LThumb
								{
OFFSET 0 0.000000 0.000000
CHANNELS 3 Zrotation Xrotation Yrotation
									End Site
									{
OFFSET 0 -0.579190 0.579190
									}
								}
							}
						}
					}
				}
				JOINT RightCollar
				{
					OFFSET 0 0 0
					CHANNELS 3 Zrotation Yrotation Xrotation
					JOINT RightShoulder
					{
						OFFSET -2.99027 0.88714 -0.02793
CHANNELS 3 Zrotation Xrotation Yrotation
						JOINT RightElbow
						{
OFFSET 0 -4.758760 -0.000000
CHANNELS 3 Zrotation Xrotation Yrotation
							JOINT RightWrist
							{
OFFSET 0 -2.932930 -0.000000
CHANNELS 3 Zrotation Xrotation Yrotation
								JOINT rhand
								{
									OFFSET 0 0 0
CHANNELS 3 Zrotation Xrotation Yrotation
									JOINT RFingers
									{
OFFSET 0 -0.831750 0.000000
CHANNELS 3 Zrotation Xrotation Yrotation
										End Site
										{
OFFSET 0 -0.670580 0.000000
										}
									}
								}
								JOINT RThumb
								{
OFFSET 0 0.000000 0.000000
CHANNELS 3 Zrotation Xrotation Yrotation
									End Site
									{
OFFSET 0 -0.680820 0.680820
									}
								}
							}
						}
					}
				}
			}
		}
	}
}
MOTION
Frames: 7
Frame Time: 0.008333333333333333
-19.397800 16.541900 -0.928400 174.858000 -81.533300 -161.861000 0.000000 0.000000 0.000000 -15.715500 -16.020400 -14.121000 1.526600 7.801200 22.111700 0.586100 7.483100 -19.084600 0.030600 -1.129400 -3.104900 0.000000 0.000000 0.000000 15.675800 19.699600 -10.345900 -1.008400 -6.389500 17.918900 2.876600 -28.385100 -11.827800 -0.024800 1.017300 -2.796500 -2.468500 1.631800 -14.182800 -0.734300 2.307500 -4.421200 1.001400 1.047800 3.208000 2.340000 7.097800 4.662500 -1.690500 9.172400 19.877800 -0.635500 4.241900 5.444000 0.000000 0.000000 0.000000 -1.602200 0.822500 -18.394100 8.539600 -14.423800 1.082600 -12.999600 38.829300 -22.760500 0.000000 0.000000 0.000000 -7.125000 0.000000 0.000000 -39.874000 48.418600 3.954100 0.000000 0.000000 0.000000 4.730600 3.366500 28.061000 -9.824000 -16.463800 -1.424700 -0.689300 13.658800 -6.872600 0.000000 0.000000 0.000000 7.125000 0.000000 -0.000000 18.917400 23.146900 10.525700
-19.377320 16.545811 -0.938958 174.424134 -81.618376 -161.213225 0.000000 0.000000 0.000000 -15.617957 -16.819282 -14.028030 1.491161 7.714209 21.849365 0.489185 8.269475 -18.732882 0.022435 -0.967052 -2.658303 0.000000 0.000000 0.000000 15.505645 19.929159 -10.735499 -1.039348 -6.483945 18.195092 2.874893 -28.391471 -11.118454 -0.072562 1.516672 -4.176741 -2.678246 1.745232 -14.179713 -0.815152 2.503304 -4.256106 1.070134 1.145010 3.367267 2.056428 6.533554 4.312144 -1.477622 8.380666 19.865271 -0.542344 3.850416 5.454984 0.000000 0.000000 0.000000 -1.718866 -0.075113 -16.556179 8.053239 -13.638821 0.964890 -13.545325 41.133608 -24.504468 0.000000 0.000000 0.000000 -7.125000 0.000000 0.000000 -41.523479 49.720384 5.722007 0.000000 0.000000 0.000000 5.005547 2.755440 27.162172 -9.518616 -15.983066 -1.339377 -1.737103 14.929003 -7.598557 0.000000 0.000000 0.000000 7.125000 0.000000 0.000000 18.087794 22.455625 10.317804
-19.358193 16.551458 -0.947292 174.703457 -81.647900 -161.285414 0.000000 0.000000 0.000000 -15.432219 -17.013919 -14.299066 1.506889 7.752982 21.966348 0.507359 8.260338 -18.923133 0.030092 -1.034784 -2.845286 0.000000 0.000000 0.000000 15.530131 19.672980 -11.128700 -1.025259 -6.441035 18.069673 2.828469 -28.214196 -9.584750 -0.163629 2.567580 -7.079008 -2.744980 1.698280 -14.146872 -0.838119 2.465713 -4.071726 1.080355 1.126424 3.542774 2.290694 6.307569 3.980819 -1.607270 8.099181 19.817795 -0.619953 3.725014 5.503278 0.000000 0.000000 0.000000 -1.890459 -1.023950 -13.158148 7.626368 -12.945316 0.866523 -12.355938 45.100881 -24.477967 0.000000 0.000000 0.000000 -7.125000 0.000000 0.000000 -40.510886 49.889390 5.720579 0.000000 0.000000 0.000000 5.249288 2.228196 27.198821 -9.372019 -15.751266 -1.299291 -2.360982 16.164433 -7.637796 0.000000 0.000000 0.000000 7.125000 0.000000 0.000000 17.645603 22.414202 10.057601
-19.333259 16.553782 -0.957067 177.102331 -81.760682 -163.461598 0.000000 0.000000 0.000000 -14.888261 -16.600554 -14.914189 1.530990 7.812032 22.144640 0.581159 7.603316 -19.136033 0.019010 -0.846048 -2.325745 0.000000 0.000000 0.000000 15.870373 19.742505 -11.380709 -1.006732 -6.384443 17.904132 2.807721 -28.084563 -11.773462 -0.010352 0.537726 -1.478056 -2.517663 1.665201 -13.903956 -0.753102 2.391016 -3.970244 1.023428 1.094019 3.527236 2.007662 6.037651 3.845867 -1.347458 7.699894 19.621256 -0.507538 3.531611 5.431951 0.000000 0.000000 0.000000 -2.051775 -1.769538 -10.028135 7.210592 -12.265354 0.775849 -9.964962 48.882140 -24.082054 0.000000 0.000000 0.000000 -7.125000 0.000000 0.000000 -38.220954 49.951257 5.363940 0.000000 0.000000 0.000000 5.373766 1.845636 27.516970 -9.184507 -15.453984 -1.248822 -3.030133 17.424801 -8.180403 0.000000 0.000000 0.000000 7.125000 0.000000 0.000000 17.113166 21.889377 9.940721
-19.305229 16.555341 -0.972827 179.695828 -81.985909 -165.859245 0.000000 0.000000 0.000000 -14.252936 -16.783089 -15.298100 1.541134 7.836635 22.219083 0.563495 7.547328 -18.899536 0.059494 -1.514567 -4.167116 0.000000 0.000000 0.000000 16.271839 19.807542 -11.621899 -0.999804 -6.362996 17.841406 2.778378 -27.965482 -12.306729 -0.000517 -0.140802 0.386885 -2.249869 1.588188 -13.577892 -0.701349 2.260627 -3.773206 0.899674 1.035200 3.570887 1.441581 5.747420 3.693155 -0.809819 7.247343 19.130153 -0.268111 3.317965 5.251259 0.000000 0.000000 0.000000 -2.196522 -2.512372 -6.316007 6.952051 -11.840197 0.721844 -5.424535 53.801702 -23.638092 0.000000 0.000000 0.000000 -7.125000 0.000000 0.000000 -33.999072 50.301375 4.944975 0.000000 0.000000 0.000000 5.515569 1.257877 28.397799 -9.184819 -15.454537 -1.248903 -2.675034 18.952901 -7.587261 0.000000 0.000000 0.000000 7.125000 0.000000 0.000000 17.431197 22.460058 9.903997
-19.278813 16.553473 -0.991523 181.691140 -82.216067 -167.746793 0.000000 0.000000 0.000000 -13.726384 -17.399786 -15.449088 1.554160 7.868163 22.314296 0.507303 8.036022 -18.729393 0.091684 -1.930934 -5.315509 0.000000 0.000000 0.000000 16.661294 19.864246 -11.774142 -0.990258 -6.333614 17.755513 2.862670 -28.321109 -11.390843 -0.010958 0.629676 -1.730455 -2.095266 1.502899 -13.063325 -0.654947 2.124092 -3.688797 0.826005 0.974972 3.388337 1.568727 5.596190 3.504167 -0.884028 7.054920 19.103028 -0.313256 3.230019 5.278432 0.000000 0.000000 0.000000 -2.303220 -3.306605 -2.082826 6.511449 -11.112339 0.634285 -5.151223 57.422033 -23.669547 0.000000 0.000000 0.000000 -7.125000 0.000000 0.000000 -33.779110 50.370972 4.968696 0.000000 0.000000 0.000000 5.564951 0.983144 29.333539 -9.116461 -15.345811 -1.230744 -2.463016 19.846492 -7.738871 0.000000 0.000000 0.000000 7.125000 0.000000 0.000000 17.561712 22.316856 10.046618
-19.259077 16.557582 -1.013192 183.094723 -82.149241 -169.071624 0.000000 0.000000 0.000000 -13.368189 -17.382016 -15.590837 1.581244 7.933072 22.511010 0.544724 7.885020 -18.990802 0.080328 -1.806316 -4.971296 0.000000 0.000000 0.000000 16.930242 19.534441 -11.922386 -0.970064 -6.270579 17.571445 2.713840 -27.666837 -11.926881 -0.000823 0.075549 -0.207653 -2.019068 1.511194 -12.594058 -0.655880 2.130305 -3.520544 0.772796 0.984250 3.311799 1.920263 5.500182 3.546582 -1.028489 6.950744 18.773168 -0.423526 3.203541 5.185452 0.000000 0.000000 0.000000 -2.351767 -3.861368 1.015349 6.343868 -10.834424 0.602203 -4.711879 60.186620 -23.483258 0.000000 0.000000 0.000000 -7.125000 0.000000 0.000000 -33.273756 50.283140 4.800120 0.000000 0.000000 0.000000 5.466465 0.687158 31.206101 -9.225189 -15.518536 -1.259706 -2.078156 18.880750 -7.599743 0.000000 0.000000 0.000000 7.125000 0.000000 0.000000 17.848621 22.452282 10.168737
